<?xml version="1.0" encoding="UTF-8" standalone="no"?>
<!-- Created with Inkscape (http://www.inkscape.org/) -->

<svg
   width="48"
   height="48"
   viewBox="0 0 48 48"
   version="1.1"
   id="svg1"
   inkscape:version="1.4.2 (f4327f4, 2025-05-13)"
   sodipodi:docname="favicon.svg"
   xmlns:inkscape="http://www.inkscape.org/namespaces/inkscape"
   xmlns:sodipodi="http://sodipodi.sourceforge.net/DTD/sodipodi-0.dtd"
   xmlns="http://www.w3.org/2000/svg"
   xmlns:svg="http://www.w3.org/2000/svg">
  <sodipodi:namedview
     id="namedview1"
     pagecolor="#ffffff"
     bordercolor="#000000"
     borderopacity="0.25"
     inkscape:showpageshadow="2"
     inkscape:pageopacity="0.0"
     inkscape:pagecheckerboard="0"
     inkscape:deskcolor="#d1d1d1"
     inkscape:document-units="px"
     inkscape:zoom="16.8125"
     inkscape:cx="24"
     inkscape:cy="23.881041"
     inkscape:window-width="1920"
     inkscape:window-height="1009"
     inkscape:window-x="1358"
     inkscape:window-y="1072"
     inkscape:window-maximized="1"
     inkscape:current-layer="layer1" />
  <defs
     id="defs1" />
  <g
     inkscape:label="Ebene 1"
     inkscape:groupmode="layer"
     id="layer1">
    <circle
       style="fill:#ffff00;stroke:none;stroke-width:0.881965"
       id="path1"
       cx="14"
       cy="14"
       r="12" />
    <circle
       style="fill:#00ff00;stroke:none;stroke-width:0.881965"
       id="circle1"
       cx="34"
       cy="14"
       r="12" />
    <circle
       style="fill:#000000;stroke:none;stroke-width:0.881965"
       id="circle2"
       cx="14"
       cy="34"
       r="12" />
    <circle
       style="fill:#ff0000;stroke:none;stroke-width:0.881965"
       id="circle3"
       cx="34"
       cy="34"
       r="12" />
    <path
       id="circle4"
       style="fill:#808000;stroke:none;stroke-width:0.881965;fill-opacity:1"
       d="M 14 22 A 12 12 0 0 0 7.4140625 24 A 12 12 0 0 0 14 26 A 12 12 0 0 0 20.585938 24 A 12 12 0 0 0 14 22 z " />
    <path
       id="circle5"
       style="fill:#88ff00;stroke:none;stroke-width:0.881965;fill-opacity:1"
       d="M 24 7.4140625 A 12 12 0 0 0 22 14 A 12 12 0 0 0 24 20.585938 A 12 12 0 0 0 26 14 A 12 12 0 0 0 24 7.4140625 z " />
    <path
       id="circle6"
       style="fill:#888800;stroke:none;stroke-width:0.881965;fill-opacity:1"
       d="M 34 22 A 12 12 0 0 0 27.414062 24 A 12 12 0 0 0 34 26 A 12 12 0 0 0 40.585938 24 A 12 12 0 0 0 34 22 z " />
    <path
       id="circle7"
       style="fill:#880000;stroke:none;stroke-width:0.881965;fill-opacity:1"
       d="M 24 27.414062 A 12 12 0 0 0 22 34 A 12 12 0 0 0 24 40.585938 A 12 12 0 0 0 26 34 A 12 12 0 0 0 24 27.414062 z " />
  </g>
</svg>
